<svg width="184" height="184" viewBox="0 0 184 184" fill="none" xmlns="http://www.w3.org/2000/svg">
<path d="M120.77 20.1257L121.326 19.4657L114.926 14.9988L108.448 10.4775L101.379 20.6048L94.3686 30.65L95.9927 31.6895L95.9963 31.6918C96.7149 32.1561 97.377 32.6269 97.8738 33.0218C98.1199 33.2175 98.3418 33.4075 98.5134 33.5776C98.598 33.6614 98.6876 33.7573 98.7651 33.8594C98.8163 33.9268 98.9695 34.13 99.0196 34.4115C99.0557 34.6141 99.03 34.7893 99.0109 34.8871C98.9893 34.9979 98.957 35.1009 98.9257 35.1875C98.8629 35.3609 98.7765 35.5434 98.6856 35.7168C98.5016 36.0677 98.2527 36.4688 97.9947 36.8452C97.7369 37.2216 97.4526 37.5986 97.1913 37.8968C97.0622 38.044 96.9224 38.1908 96.7821 38.312C96.7119 38.3726 96.6262 38.4403 96.5287 38.5005C96.4426 38.5538 96.2848 38.641 96.0783 38.6777C95.8314 38.7217 95.6282 38.66 95.6027 38.653C95.5314 38.6335 95.469 38.6096 95.4258 38.5919C95.3364 38.5554 95.2409 38.5088 95.1504 38.4621C94.965 38.3662 94.7302 38.2328 94.4679 38.0754C93.941 37.7594 93.2616 37.3222 92.5641 36.8356C92.5628 36.8347 92.5616 36.8338 92.5603 36.8329L90.8631 35.6728L56.0124 85.6077L21.1332 135.583L27.4654 140.003L33.9184 144.506L34.3696 144.039L34.3705 144.038C35.1254 143.259 36.27 142.503 37.4433 141.905C38.622 141.304 39.9273 140.812 41.0461 140.613C42.2428 140.4 44.0384 140.497 45.7948 140.758C47.5681 141.022 49.4459 141.475 50.8371 142.054C52.1634 142.586 53.9674 143.684 55.6195 144.86C57.272 146.036 58.8862 147.371 59.797 148.422C60.703 149.451 61.6851 151.039 62.4798 152.6C63.2697 154.152 63.9417 155.811 64.1519 156.992C64.3489 158.1 64.2695 159.674 64.0607 161.086C63.9542 161.806 63.8094 162.515 63.635 163.14C63.4888 163.663 63.309 164.174 63.0888 164.588C63.1641 164.67 63.2848 164.79 63.4753 164.957C64.3256 165.699 66.0501 166.932 69.3572 169.24L75.6894 173.659L119.364 111.082L145.567 73.5368C145.561 73.534 145.554 73.5312 145.548 73.5284C145.429 73.4768 145.296 73.4083 145.164 73.3354C144.895 73.187 144.548 72.9769 144.155 72.7275C143.363 72.2262 142.334 71.5351 141.256 70.7829L141.251 70.7794L137.303 67.9875L136.504 67.4225L137.052 66.6114L138.131 65.0131L138.132 65.0111C138.208 64.8993 138.278 64.7932 138.347 64.6892C138.414 64.5875 138.482 64.4838 138.547 64.3875C138.673 64.2027 138.825 63.991 139.005 63.8104C139.195 63.6199 139.452 63.4272 139.797 63.3316C140.143 63.2359 140.476 63.2653 140.773 63.3448C141.306 63.4876 141.912 63.8505 142.611 64.3127C143.165 64.6784 143.859 65.1644 144.728 65.773C145.007 65.9683 145.304 66.1762 145.62 66.3969C146.482 66.9983 147.266 67.5735 147.843 68.0175C148.13 68.2384 148.373 68.4336 148.552 68.5868C148.639 68.6617 148.725 68.7384 148.796 68.8098C148.808 68.822 148.822 68.8362 148.837 68.852L163.004 48.5536L156.526 44.0324L150.128 39.5672L149.421 40.6663C147.317 43.9398 143.82 45.6773 139.867 45.9015C135.924 46.125 131.507 44.8536 127.393 42.1143L127.393 42.114C123.182 39.3072 120.253 35.3697 118.997 31.365C117.742 27.3629 118.142 23.1972 120.768 20.1285C120.768 20.1276 120.769 20.1266 120.77 20.1257ZM62.9581 164.814C62.9581 164.813 62.9586 164.813 62.9595 164.811C62.9585 164.813 62.9581 164.814 62.9581 164.814ZM113.651 50.1394L113.085 50.9189L112.285 50.3821L108.269 47.6876L108.263 47.6836C107.159 46.9314 106.138 46.1918 105.382 45.6037C105.006 45.3113 104.683 45.0467 104.445 44.8316C104.328 44.7257 104.215 44.6168 104.122 44.5129C104.076 44.4617 104.02 44.3949 103.969 44.3178C103.933 44.2642 103.826 44.1024 103.786 43.876C103.751 43.6803 103.775 43.5105 103.79 43.4259C103.807 43.3242 103.834 43.2276 103.86 43.1452C103.912 42.9796 103.985 42.7996 104.064 42.624C104.222 42.2689 104.438 41.8543 104.662 41.4612C104.886 41.069 105.132 40.674 105.357 40.3627C105.467 40.2096 105.588 40.0547 105.71 39.926C105.77 39.8624 105.849 39.7859 105.942 39.716C106.015 39.6609 106.195 39.534 106.45 39.4886C106.616 39.4591 106.749 39.4791 106.801 39.4881C106.865 39.4993 106.917 39.5146 106.947 39.5245C106.971 39.5321 106.992 39.5401 107.012 39.5477C107.042 39.5596 107.066 39.5705 107.082 39.5778C107.137 39.6034 107.189 39.632 107.228 39.6541C107.31 39.7009 107.411 39.7633 107.522 39.8334C107.747 39.976 108.054 40.1792 108.42 40.425C109.152 40.9182 110.141 41.5991 111.214 42.3477C112.3 43.1061 113.305 43.8624 114.051 44.4719C114.422 44.7751 114.743 45.0524 114.98 45.2817C115.097 45.3948 115.21 45.5117 115.303 45.6247C115.349 45.6808 115.404 45.7516 115.453 45.8323C115.492 45.8969 115.578 46.0457 115.614 46.2462C115.667 46.5453 115.603 46.8299 115.558 46.9927C115.505 47.1897 115.425 47.3961 115.334 47.5971C115.15 47.9989 114.886 48.4504 114.571 48.8727C114.57 48.8744 114.569 48.8761 114.568 48.8778L113.651 50.1394ZM128.226 54.1849L128.235 54.1915C129.313 54.9437 130.305 55.6631 131.037 56.2246C131.4 56.5038 131.711 56.7528 131.94 56.9516C132.052 57.0493 132.16 57.149 132.249 57.243C132.292 57.2889 132.347 57.3506 132.399 57.4224L132.401 57.4249C132.432 57.4688 132.555 57.6394 132.599 57.8834C132.643 58.1342 132.586 58.3465 132.569 58.4102L132.569 58.4103C132.542 58.51 132.506 58.6039 132.473 58.6813C132.406 58.8388 132.317 59.0142 132.219 59.1891C132.022 59.5434 131.754 59.9682 131.467 60.3797L131.462 60.3866L131.457 60.3935L130.431 61.8118L129.877 62.5772L129.082 62.0679L127.834 61.2695C127.834 61.2692 127.833 61.2688 127.833 61.2684C126.371 60.34 124.608 59.1274 123.206 58.1219C122.505 57.6189 121.887 57.1626 121.439 56.8158C121.216 56.6437 121.025 56.4907 120.884 56.3687C120.815 56.3095 120.743 56.2445 120.68 56.1807C120.65 56.1501 120.606 56.1028 120.562 56.0447L120.56 56.0421C120.539 56.0153 120.403 55.8416 120.358 55.5868C120.317 55.3563 120.36 55.1612 120.38 55.0791C120.405 54.9741 120.441 54.8771 120.473 54.7982C120.539 54.639 120.627 54.468 120.719 54.3041C120.905 53.9716 121.154 53.5835 121.411 53.2164C121.667 52.8493 121.945 52.481 122.193 52.1915C122.315 52.0489 122.445 51.9073 122.572 51.7911C122.635 51.7335 122.714 51.6666 122.804 51.6062C122.874 51.559 123.042 51.4515 123.272 51.4105C123.441 51.3805 123.578 51.4003 123.634 51.4097C123.704 51.4215 123.762 51.4381 123.8 51.4502C123.877 51.4745 123.947 51.5042 124 51.5278C124.108 51.5768 124.232 51.6416 124.359 51.7117C124.618 51.8542 124.956 52.0564 125.345 52.298C126.126 52.7834 127.151 53.4529 128.226 54.185L128.226 54.1849Z" fill="#6557FF" stroke="white" stroke-width="2"/>
<path d="M88.6211 105.43V110H73.4844V105.43H88.6211ZM75.3985 81.5625V110H69.5391V81.5625H75.3985ZM86.6485 93.1445V97.5977H73.4844V93.1445H86.6485ZM88.6016 81.5625V86.1523H73.4844V81.5625H88.6016ZM107.145 81.5625V110H101.305V81.5625H107.145ZM115.895 81.5625V86.1523H92.6914V81.5625H115.895Z" fill="white"/>
</svg>
